<svg width="32" height="32" fill="none" xmlns="http://www.w3.org/2000/svg"><mask id="a" fill="#fff"><path d="M32 16c0 8.837-7.163 16-16 16S0 24.837 0 16 7.163 0 16 0s16 7.163 16 16z"/></mask><path d="M14.707 10.293a1 1 0 10-1.414 1.414l1.414-1.414zM19 16l.707.707a1 1 0 000-1.414L19 16zm-5.707 4.293a1 1 0 001.414 1.414l-1.414-1.414zm0-8.586l5 5 1.414-1.414-5-5-1.414 1.414zm5 3.586l-5 5 1.414 1.414 5-5-1.414-1.414zM30 16c0 7.732-6.268 14-14 14v4c9.941 0 18-8.059 18-18h-4zM16 30C8.268 30 2 23.732 2 16h-4c0 9.941 8.059 18 18 18v-4zM2 16C2 8.268 8.268 2 16 2v-4C6.059-2-2 6.059-2 16h4zM16 2c7.732 0 14 6.268 14 14h4c0-9.941-8.059-18-18-18v4z" fill="#A65CF0" mask="url(#a)"/></svg>